<svg xmlns="http://www.w3.org/2000/svg" xmlns:xlink="http://www.w3.org/1999/xlink" viewBox="0 0 2874 1378.31"><defs><style>.cls-1{fill:url(#linear-gradient);}</style><linearGradient id="linear-gradient" x1="1432.29" y1="1452.69" x2="1432.29" y2="-81.78" gradientUnits="userSpaceOnUse"><stop offset="0"/><stop offset="0.8" stop-color="#2e3192"/></linearGradient></defs><title>blue-bg_1</title><g id="Layer_3" data-name="Layer 3"><path class="cls-1" d="M2874,1378.65l71.38-6.65L2942.75-3.88,2874,0c-72.81,0-109.7,33.37-145.38,65.65C2692,98.74,2657.48,130,2586.59,130s-105.44-31.26-142-64.35C2408.89,33.37,2372,0,2299.19,0s-109.7,33.37-145.38,65.65c-36.58,33.09-71.14,64.35-142,64.35s-105.44-31.26-142-64.35C1834.09,33.37,1797.2,0,1724.39,0S1614.69,33.37,1579,65.65C1542.43,98.74,1507.88,130,1437,130s-105.44-31.26-142-64.35C1259.29,33.37,1222.41,0,1149.59,0s-109.7,33.37-145.37,65.65C967.63,98.74,933.08,130,862.19,130s-105.44-31.26-142-64.35C684.5,33.37,647.61,0,574.79,0S465.09,33.37,429.42,65.65C392.84,98.74,358.28,130,287.4,130S182,98.74,145.38,65.65C109.7,33.37,72.81,0,0,0L-74.11.82l-6.68,1377.49Z"/></g></svg>