<?xml version="1.0" encoding="utf-8"?>
<!-- Generator: Adobe Illustrator 25.4.1, SVG Export Plug-In . SVG Version: 6.00 Build 0)  -->
<svg version="1.1" id="Layer_1" xmlns="http://www.w3.org/2000/svg" xmlns:xlink="http://www.w3.org/1999/xlink" x="0px" y="0px"
	 viewBox="0 0 2200 654.9" style="enable-background:new 0 0 2200 654.9;" xml:space="preserve">
<style type="text/css">
	.st0{fill:#F37025;}
	.st1{fill-rule:evenodd;clip-rule:evenodd;fill:#3177B5;}
	.st2{fill-rule:evenodd;clip-rule:evenodd;fill:#F37025;}
</style>
<g>
	<path class="st0" d="M130.8,616V495.9h26.3c17.1,0,29.2,0.9,36.1,2.6c7,1.7,13.1,4.6,18.3,8.7c6.9,5.3,12.2,12.1,15.8,20.4
		s5.4,17.8,5.4,28.5s-1.8,20.1-5.4,28.3c-3.6,8.2-8.8,15-15.8,20.4c-5.3,4.1-11.2,6.9-17.9,8.7c-6.7,1.7-17.1,2.6-31.3,2.6h-5.2
		L130.8,616L130.8,616z M150.4,598.3h16.4c9,0,15.8-0.6,20.3-1.8c4.5-1.2,8.4-3.2,11.8-6.1c4.5-3.9,7.9-8.7,10.2-14.5
		s3.4-12.5,3.4-20.1s-1.1-14.4-3.4-20.1c-2.3-5.8-5.7-10.6-10.2-14.5c-3.4-2.9-7.4-4.9-12.2-6.1c-4.7-1.2-12.1-1.8-22.2-1.8h-7h-7.1
		V598.3z"/>
	<path class="st0" d="M331.5,616l-13.6-30.9h-47.6L256.4,616h-20.5L294,491.2L352.1,616H331.5z M277.6,568.8H311l-12.3-27.4
		c-0.7-1.8-1.5-3.8-2.2-6c-0.8-2.3-1.5-4.8-2.3-7.6c-0.7,2.6-1.4,5.1-2.1,7.3c-0.7,2.3-1.5,4.4-2.3,6.3L277.6,568.8z"/>
	<path class="st0" d="M381.7,562.2v53.7h-18.3V495.8h27.2c8,0,14.2,0.5,18.6,1.6c4.4,1,8.2,2.8,11.3,5.2c3.7,2.9,6.6,6.6,8.6,11.2
		s3,9.6,3,15.1c0,9.6-2.3,17.2-7,22.6c-4.6,5.4-11.5,8.7-20.6,9.8l41.3,54.6h-22.1l-39.9-53.7L381.7,562.2L381.7,562.2z
		 M382.9,547.1h3.5c10.3,0,17.2-1.2,20.6-3.6s5.1-6.7,5.1-12.8c0-6.6-1.8-11.3-5.5-14c-3.6-2.7-10.4-4.1-20.2-4.1h-3.5V547.1z"/>
	<path class="st0" d="M457.5,616V495.9H477v49.7l43.1-49.7H544l-47.6,53.4l53.2,66.7h-25.2l-47.5-61.3V616H457.5z"/>
	<path class="st0" d="M710.3,556.7c-0.2-0.9-0.6-3.5-1.1-7.7c-0.4-3.5-0.8-6.4-1.1-8.7c-0.5,2.7-1.2,5.5-2.1,8.2
		c-0.9,2.7-2,5.5-3.4,8.4l-31.4,64l-31.4-65.3c-1.3-2.7-2.5-5.3-3.4-7.8c-1-2.5-1.8-5-2.5-7.5c-0.1,2.5-0.3,5.1-0.6,7.9
		c-0.4,2.8-0.9,5.6-1.6,8.6l-12.9,59.1h-18l28.4-125.2l35.4,75.8c0.6,1.2,1.4,3.2,2.5,6s2.5,6.2,4.1,10.3c1.1-3.4,2.9-7.8,5.4-13.1
		c0.7-1.4,1.1-2.5,1.5-3.3l34.6-75.7l29,125.2h-18.1L710.3,556.7z"/>
	<path class="st0" d="M836.6,616L823,585.1h-47.6L761.5,616H741l58.1-124.8L857.2,616H836.6z M782.6,568.8h33.5l-12.3-27.4
		c-0.7-1.8-1.5-3.8-2.2-6c-0.8-2.3-1.5-4.8-2.3-7.6c-0.7,2.6-1.4,5.1-2.1,7.3c-0.7,2.3-1.5,4.4-2.3,6.3L782.6,568.8z"/>
	<path class="st0" d="M898.1,512.5V616h-19.5V512.5h-31.9v-16.6h83.2v16.6H898.1z"/>
	<path class="st0" d="M983.5,512.5V616H964V512.5h-31.9v-16.6h83.2v16.6H983.5z"/>
	<path class="st0" d="M1030.2,616V495.9h67v16.6h-47.5v30.1h47.5v17.1h-47.5v38.8h47.5V616H1030.2z"/>
	<path class="st0" d="M1137.9,562.2v53.7h-18.3V495.8h27.2c8,0,14.2,0.5,18.6,1.6s8.2,2.8,11.3,5.2c3.7,2.9,6.6,6.6,8.6,11.2
		s3,9.6,3,15.1c0,9.6-2.3,17.2-7,22.6c-4.6,5.4-11.5,8.7-20.6,9.8l41.3,54.6h-22l-39.9-53.7L1137.9,562.2L1137.9,562.2z
		 M1139.1,547.1h3.5c10.3,0,17.2-1.2,20.6-3.6s5.1-6.7,5.1-12.8c0-6.6-1.8-11.3-5.5-14c-3.6-2.7-10.4-4.1-20.2-4.1h-3.5V547.1z"/>
	<path class="st0" d="M1257.5,591.9l15.6-7.2c1.5,5.3,4.2,9.5,8.1,12.3s9,4.2,15.1,4.2c5.8,0,10.4-1.6,13.8-4.8
		c3.4-3.2,5.1-7.5,5.1-13c0-7-5.9-13.3-17.6-18.9c-1.6-0.8-2.9-1.4-3.8-1.8c-13.2-6.5-22-12.3-26.4-17.5s-6.6-11.6-6.6-19.1
		c0-9.8,3.3-17.7,10-23.8c6.6-6.1,15.3-9.1,26.1-9.1c8.9,0,16.3,1.7,22.2,5.1c6,3.4,10.1,8.3,12.4,14.7l-15.2,7.9
		c-2.4-3.8-5-6.5-7.9-8.3c-2.9-1.7-6.2-2.6-9.9-2.6c-5.3,0-9.4,1.4-12.5,4.1s-4.6,6.4-4.6,11c0,7.2,6.8,13.9,20.3,20.2
		c1,0.5,1.9,0.9,2.5,1.2c11.9,5.5,20,10.8,24.4,16s6.6,11.7,6.6,19.6c0,11.4-3.6,20.4-10.7,27.1s-16.8,10-29,10
		c-10.2,0-18.6-2.3-25.1-7C1263.8,607.4,1259.5,600.7,1257.5,591.9z"/>
	<path class="st0" d="M1479.6,556.2c0,8.5-1.6,16.6-4.8,24.2c-3.2,7.6-7.9,14.4-14,20.3c-6.2,6-13.2,10.5-20.9,13.7
		c-7.8,3.2-15.9,4.8-24.4,4.8c-8.6,0-16.9-1.6-24.7-4.8c-7.8-3.2-14.8-7.8-20.8-13.7c-6.1-6-10.8-12.7-13.9-20.2
		c-3.2-7.5-4.8-15.6-4.8-24.3c0-8.6,1.6-16.7,4.8-24.3c3.2-7.6,7.8-14.4,13.9-20.4s13.1-10.5,20.8-13.6c7.8-3.1,16-4.7,24.7-4.7
		c8.6,0,16.8,1.6,24.6,4.7c7.7,3.1,14.7,7.7,20.8,13.6c6.1,6.1,10.8,12.9,14,20.5C1478,539.6,1479.6,547.7,1479.6,556.2z
		 M1459.3,556.2c0-6.1-1.1-11.8-3.3-17.3c-2.2-5.5-5.4-10.3-9.6-14.6c-4-4.2-8.7-7.4-14.1-9.7c-5.3-2.3-10.9-3.4-16.9-3.4
		s-11.5,1.1-16.8,3.4c-5.3,2.2-10.1,5.5-14.2,9.8c-4.1,4.2-7.3,9-9.5,14.5s-3.3,11.3-3.3,17.4s1.1,11.8,3.3,17.2
		c2.2,5.4,5.4,10.3,9.5,14.5c4.2,4.3,8.9,7.5,14.2,9.8c5.3,2.2,10.9,3.4,16.9,3.4c5.8,0,11.4-1.1,16.7-3.4c5.3-2.2,10-5.5,14.2-9.8
		s7.4-9.1,9.6-14.6C1458.2,567.9,1459.3,562.2,1459.3,556.2z"/>
	<path class="st0" d="M1502,616V495.9h67v16.6h-47.5v29.9h47.5v17.1h-47.5v56.4L1502,616L1502,616z"/>
	<path class="st0" d="M1629,512.5V616h-19.5V512.5h-31.9v-16.6h83.2v16.6H1629z"/>
	<path class="st0" d="M1661.4,495.9h19.3l22.7,60.6c1.5,4,2.7,7.5,3.7,10.5s1.9,5.8,2.7,8.4c1.9-6.3,3.9-12.5,6-18.6
		c0.3-0.8,0.5-1.3,0.6-1.6l24.1-64.1l25.4,65.4c1.2,3.2,2.3,6.3,3.4,9.5s2.1,6.4,3,9.6c0.5-2.5,1.3-5.2,2.2-8.1
		c0.9-3,2.1-6.5,3.6-10.5l22.6-61.1h19.4l-46.5,124.8l-27.4-68.5c-1.2-3.1-2.3-6-3.3-8.8s-1.9-5.5-2.6-8c-0.9,3.2-1.9,6.2-2.8,9.1
		c-0.9,2.8-1.9,5.5-2.9,8.1l-26.9,68.2L1661.4,495.9z"/>
	<path class="st0" d="M1909.7,616l-13.6-30.9h-47.6l-13.9,30.9h-20.5l58.1-124.8l58.1,124.8H1909.7z M1855.8,568.8h33.5l-12.3-27.4
		c-0.7-1.8-1.5-3.8-2.2-6c-0.8-2.3-1.5-4.8-2.3-7.6c-0.7,2.6-1.3,5.1-2.1,7.3c-0.7,2.3-1.5,4.4-2.2,6.3L1855.8,568.8z"/>
	<path class="st0" d="M1959.9,562.2v53.7h-18.3V495.8h27.2c8,0,14.2,0.5,18.6,1.6c4.4,1,8.2,2.8,11.3,5.2c3.7,2.9,6.6,6.6,8.6,11.2
		s3,9.6,3,15.1c0,9.6-2.3,17.2-7,22.6c-4.6,5.4-11.5,8.7-20.6,9.8l41.3,54.6h-22.1l-39.9-53.7L1959.9,562.2L1959.9,562.2z
		 M1961.1,547.1h3.5c10.3,0,17.2-1.2,20.6-3.6s5.1-6.7,5.1-12.8c0-6.6-1.8-11.3-5.5-14c-3.6-2.7-10.4-4.1-20.2-4.1h-3.5V547.1z"/>
	<path class="st0" d="M2035.7,616V495.9h67v16.6h-47.5v30.1h47.5v17.1h-47.5v38.8h47.5V616H2035.7z"/>
</g>
<g>
	<path class="st1" d="M1533.1,357c-2,7.5-3.4,15.3-6,22.6c-5.7,16.4-14.8,30.1-28.9,41c-10.3,8-21.5,12.9-33.7,16.4
		c-3.6,1-7.4,1.5-11.2,1.5c-114.4,0.1-228.9,0-343.3,0c-12.3,0-14.6-2.3-14.6-14.6c0-124.2,0-248.3,0-372.5
		c0-10.3,2.3-12.6,12.5-12.5c6.9,0,13.9-0.7,20.7,0.2c9.6,1.3,18.9,4.6,28.5,5.5c15.1,1.4,27.7,8.5,40.4,15.4
		c19.1,10.4,36.8,22.6,48.9,41.6c5.7,8.9,12,17.3,18.1,26c3.5,4.9,3.3,9-1.6,13.2c-10.6,9.2-19.4,19.9-24.9,32.9
		c-3.2,7.5-6,15.1-8.7,22.7c-0.5,1.5,0.4,3.6,1.5,5.5c10.9-36,34.3-60.8,67.8-75.5c21.4-9.4,44.8-11.7,67.2-4.9
		c77.6,23.6,95.4,87.7,86.2,140.9c8.8,2.9,18,5.2,26.6,8.8c17.1,7,30.2,18.9,40.3,34.3c6.3,9.5,10.3,19.8,11.3,31.3
		c0.1,1.7,1.9,3.3,2.9,4.9C1533.1,346.8,1533.1,351.9,1533.1,357z"/>
	<path class="st2" d="M700.4,363.1c4-4,8.8-5,14.5-4.8c13.3,0.4,26.6,0.1,39.9,0c7.3-0.1,13.6-1.7,16.9-9.7c1.2-2.9,4.5-4.8,6.7-7.3
		c6.1-7,12.3-13.9,18.1-21.1c1.2-1.5,1.2-4.3,1.2-6.6c0-14.8-0.1-29.6-0.2-44.5c-0.1-12.1,7.2-19.6,19.5-19.6
		c14.3,0,28.7,0.5,43-0.2c12.7-0.6,22.8,7.8,21.5,21.5c-1.2,12.9,0,26.1-0.5,39.1c-0.3,7,2.1,11.9,7,16.8
		c7.9,7.8,14.8,16.5,22.6,24.3c2.4,2.4,6.4,4.1,9.8,4.2c12.3,0.5,24.6,0.5,36.8,0c3.1-0.1,7-1.7,9.1-3.9
		c10.3-10.7,20.3-21.8,30.2-32.9c1.2-1.3,1.9-3.6,1.9-5.4c0.2-15.1,0.2-30.2,0-45.3c0-2.6-1.1-5.7-2.7-7.5
		c-10-11-20.1-21.8-30.6-32.4c-1.8-1.8-5.3-2.8-8-2.9c-15.9-0.3-31.7-0.1-47.6-0.1c-8,0-10.9-3-10.9-11.1c0-17.9,0-35.8,0-53.8
		c0-13,2.1-14,14.7-14.8c14.3-0.9,28.7-0.2,43-0.7c3.4-0.1,7.6-1.5,9.9-3.9c10.6-10.8,20.7-22,30.6-33.3c1.4-1.6,1.7-4.7,1.7-7
		c0.1-16.6,0-33.3,0.1-49.9c0-7.3,3.6-11.4,10.9-11.4c19.7-0.2,39.4-0.1,59.1,0c6.6,0,9.9,3.6,9.9,10c0,20.2,0,40.4-0.1,60.7
		c-0.1,7.5-5.6,9.1-11.5,9.3c-14.1,0.3-28.2,0.7-42.2,0c-7.8-0.4-13,2.7-17.7,8.2c-7.8,9-15.8,17.8-24,26.4
		c-3.7,3.9-4.9,7.9-4.6,13.4c0.6,13,0.2,26.1,0.4,39.1c0,2.3,0.5,5.2,1.9,6.9c9.9,11.2,20.1,22.2,30.5,32.9c2,2,5.6,3.5,8.5,3.6
		c15.6,0.4,31.2,0.2,46.8,0.4c8.6,0,12.1,3.3,12.1,11.9c0,17.9-0.1,35.8-0.1,53.7c0,12.5-2.5,15.2-15.1,15.3
		c-14.3,0.2-28.7-0.2-43,0.3c-3.6,0.1-7.9,2-10.4,4.5c-9.5,9.7-18.7,19.8-27.5,30.3c-2.5,2.9-4.3,7.4-4.4,11.2
		c-0.3,15.8,0.4,31.6,0.4,47.5c0,7.4-3.8,11-11.2,11c-19.4,0.1-38.9,0-58.4,0.1c-7,0-10.3-3.3-10.3-10.2c0-16.6,0.2-33.3-0.2-49.9
		c-0.1-3.3-1.8-7.2-4-9.9c-8.1-9.7-16.5-19.2-25.3-28.2c-2.5-2.5-6.8-4.4-10.4-4.6c-13-0.5-26.1-0.2-39.1,0.2c-2.7,0.1-6.2,1.1-8,3
		c-8.7,9.2-16.7,19.1-25.6,28c-4.3,4.2-5.7,8.4-5.6,14.1c0.3,15.1,0.3,30.2,0.3,45.3c0,10.2-4.7,14.9-14.8,14.9
		c-17.1,0-34.3,0.4-51.4-0.3c-4.7-0.2-9.2-3.7-13.8-5.8C700.4,409.2,700.4,386.2,700.4,363.1z"/>
	<path class="st1" d="M797.3,396.2c0-7.7,0-15.3,0-23c0-11.5,6.1-17.8,17.5-17.9c16.6,0,33.3,0.2,49.9-0.1
		c9.4-0.2,16.9,7.4,16.9,16.9c0,16.6-0.1,33.3,0,49.9c0.1,9-7.4,17.2-17,16.9c-16.6-0.5-33.3-0.5-49.9,0
		c-9.9,0.4-17.9-8.1-17.5-18.1C797.6,412.6,797.3,404.4,797.3,396.2z"/>
	<path class="st1" d="M937.8,249.4c10,0,20,0,29.9,0c7.3,0.1,11.3,4,11.3,11.1c0.1,19.9,0,39.9,0,59.8c0,6.7-3.6,10.4-10.3,10.5
		c-20.2,0.1-40.4,0.1-60.6,0c-6.4,0-10.7-4.5-10.7-11.1c-0.1-19.9-0.1-39.9,0-59.8c0-6.6,3.9-10.3,10.4-10.5
		C917.9,249.3,927.8,249.5,937.8,249.4C937.8,249.5,937.8,249.5,937.8,249.4z"/>
	<path class="st1" d="M1079.5,395.8c0,9.5,0,18.9,0,28.4c0,8.2-4.3,12.4-12.6,12.4c-19.2,0-38.4,0-57.6,0c-6.9,0-11.3-4.4-11.3-11.3
		c0-19.7,0-39.4,0-59.1c0-7.2,4-11.1,11.2-11.1c19.4,0,38.9,0,58.3,0c8,0,11.9,4.1,11.9,12.2
		C1079.6,376.8,1079.5,386.3,1079.5,395.8z"/>
	<path class="st1" d="M1079.5,185c0,9.5,0,18.9,0,28.4c0,7.8-4.2,11.9-12.2,11.9c-19.2,0-38.4,0-57.5,0c-7.9,0-11.6-3.6-11.6-11.5
		c-0.1-19.4-0.1-38.9,0-58.3c0-7.4,4.3-11.6,11.7-11.6c19.4-0.1,38.9,0,58.3,0c6.9,0,11.4,4.8,11.4,11.9
		C1079.5,165.5,1079.5,175.2,1079.5,185z"/>
</g>
</svg>
