<svg id="Layer_1" data-name="Layer 1" xmlns="http://www.w3.org/2000/svg" viewBox="0 0 832.7 400.27"><defs><style>.cls-1{fill:#3177b5;}.cls-1,.cls-2{fill-rule:evenodd;}.cls-2{fill:#f37025;}</style></defs><path class="cls-1" d="M832.7,318.36c-2,7.5-3.4,15.3-6,22.6-5.7,16.4-14.8,30.1-28.9,41-10.3,8-21.5,12.9-33.7,16.4a42,42,0,0,1-11.2,1.5q-171.6.15-343.3,0c-12.3,0-14.6-2.3-14.6-14.6V12.76c0-10.3,2.3-12.6,12.5-12.5,6.9,0,13.9-.7,20.7.2,9.6,1.3,18.9,4.6,28.5,5.5,15.1,1.4,27.7,8.5,40.4,15.4C516.2,31.76,533.9,44,546,63c5.7,8.9,12,17.3,18.1,26,3.5,4.9,3.3,9-1.6,13.2-10.6,9.2-19.4,19.9-24.9,32.9-3.2,7.5-6,15.1-8.7,22.7-.5,1.5.4,3.6,1.5,5.5,10.9-36,34.3-60.8,67.8-75.5,21.4-9.4,44.8-11.7,67.2-4.9,77.6,23.6,95.4,87.7,86.2,140.9,8.8,2.9,18,5.2,26.6,8.8,17.1,7,30.2,18.9,40.3,34.3a66.23,66.23,0,0,1,11.3,31.3c.1,1.7,1.9,3.3,2.9,4.9Z"/><path class="cls-2" d="M0,324.46c4-4,8.8-5,14.5-4.8,13.3.4,26.6.1,39.9,0,7.3-.1,13.6-1.7,16.9-9.7,1.2-2.9,4.5-4.8,6.7-7.3,6.1-7,12.3-13.9,18.1-21.1,1.2-1.5,1.2-4.3,1.2-6.6,0-14.8-.1-29.6-.2-44.5-.1-12.1,7.2-19.6,19.5-19.6,14.3,0,28.7.5,43-.2,12.7-.6,22.8,7.8,21.5,21.5-1.2,12.9,0,26.1-.5,39.1-.3,7,2.1,11.9,7,16.8,7.9,7.8,14.8,16.5,22.6,24.3a15.58,15.58,0,0,0,9.8,4.2c12.3.5,24.6.5,36.8,0a14.49,14.49,0,0,0,9.1-3.9c10.3-10.7,20.3-21.8,30.2-32.9a8.66,8.66,0,0,0,1.9-5.4q.3-22.65,0-45.3a12.25,12.25,0,0,0-2.7-7.5c-10-11-20.1-21.8-30.6-32.4-1.8-1.8-5.3-2.8-8-2.9-15.9-.3-31.7-.1-47.6-.1-8,0-10.9-3-10.9-11.1v-53.8c0-13,2.1-14,14.7-14.8,14.3-.9,28.7-.2,43-.7,3.4-.1,7.6-1.5,9.9-3.9,10.6-10.8,20.7-22,30.6-33.3,1.4-1.6,1.7-4.7,1.7-7,.1-16.6,0-33.3.1-49.9,0-7.3,3.6-11.4,10.9-11.4,19.7-.2,39.4-.1,59.1,0,6.6,0,9.9,3.6,9.9,10q0,30.3-.1,60.7c-.1,7.5-5.6,9.1-11.5,9.3-14.1.3-28.2.7-42.2,0-7.8-.4-13,2.7-17.7,8.2q-11.7,13.5-24,26.4c-3.7,3.9-4.9,7.9-4.6,13.4.6,13,.2,26.1.4,39.1,0,2.3.5,5.2,1.9,6.9q14.85,16.8,30.5,32.9a13.92,13.92,0,0,0,8.5,3.6c15.6.4,31.2.2,46.8.4,8.6,0,12.1,3.3,12.1,11.9,0,17.9-.1,35.8-.1,53.7,0,12.5-2.5,15.2-15.1,15.3-14.3.2-28.7-.2-43,.3a16.71,16.71,0,0,0-10.4,4.5c-9.5,9.7-18.7,19.8-27.5,30.3a19.31,19.31,0,0,0-4.4,11.2c-.3,15.8.4,31.6.4,47.5,0,7.4-3.8,11-11.2,11-19.4.1-38.9,0-58.4.1-7,0-10.3-3.3-10.3-10.2,0-16.6.2-33.3-.2-49.9a17.9,17.9,0,0,0-4-9.9c-8.1-9.7-16.5-19.2-25.3-28.2a17.39,17.39,0,0,0-10.4-4.6c-13-.5-26.1-.2-39.1.2-2.7.1-6.2,1.1-8,3-8.7,9.2-16.7,19.1-25.6,28-4.3,4.2-5.7,8.4-5.6,14.1.3,15.1.3,30.2.3,45.3,0,10.2-4.7,14.9-14.8,14.9-17.1,0-34.3.4-51.4-.3-4.7-.2-9.2-3.7-13.8-5.8C0,370.56,0,347.56,0,324.46Z"/><path class="cls-1" d="M96.9,357.56v-23c0-11.5,6.1-17.8,17.5-17.9,16.6,0,33.3.2,49.9-.1a16.63,16.63,0,0,1,16.9,16.9c0,16.6-.1,33.3,0,49.9.1,9-7.4,17.2-17,16.9-16.6-.5-33.3-.5-49.9,0-9.9.4-17.9-8.1-17.5-18.1C97.2,374,96.9,365.76,96.9,357.56Z"/><path class="cls-1" d="M237.4,210.76h29.9c7.3.1,11.3,4,11.3,11.1.1,19.9,0,39.9,0,59.8,0,6.7-3.6,10.4-10.3,10.5q-30.3.15-60.6,0c-6.4,0-10.7-4.5-10.7-11.1-.1-19.9-.1-39.9,0-59.8,0-6.6,3.9-10.3,10.4-10.5,10.1-.1,20,.1,30,0Z"/><path class="cls-1" d="M379.1,357.16v28.4c0,8.2-4.3,12.4-12.6,12.4H308.9c-6.9,0-11.3-4.4-11.3-11.3v-59.1c0-7.2,4-11.1,11.2-11.1h58.3c8,0,11.9,4.1,11.9,12.2C379.2,338.16,379.1,347.66,379.1,357.16Z"/><path class="cls-1" d="M379.1,146.36v28.4c0,7.8-4.2,11.9-12.2,11.9H309.4c-7.9,0-11.6-3.6-11.6-11.5-.1-19.4-.1-38.9,0-58.3,0-7.4,4.3-11.6,11.7-11.6,19.4-.1,38.9,0,58.3,0,6.9,0,11.4,4.8,11.4,11.9C379.1,126.86,379.1,136.56,379.1,146.36Z"/></svg>